<svg xmlns="http://www.w3.org/2000/svg" version="1.1" xmlns:xlink="http://www.w3.org/1999/xlink" width="512" height="512" x="0" y="0" viewBox="0 0 100 100" style="enable-background:new 0 0 512 512" xml:space="preserve" class=""><g><circle cx="50" cy="50" r="47.5" fill="#3399FF" opacity="1" data-original="#3399ff"></circle><path fill="#FFFFFF" d="M67.285 45.665h-1.352v-9.732C65.933 27.147 58.785 20 50 20s-15.933 7.147-15.933 15.933v9.732h-1.352a7.053 7.053 0 0 0-7.052 7.052v20.225A7.055 7.055 0 0 0 32.715 80h34.57a7.055 7.055 0 0 0 7.052-7.058V52.717a7.053 7.053 0 0 0-7.052-7.052zM53.222 64.03v5.75a3.222 3.222 0 1 1-6.444 0v-5.75a6.122 6.122 0 0 1-2.926-5.225 6.148 6.148 0 0 1 12.296 0 6.122 6.122 0 0 1-2.926 5.225zm5.655-18.364H41.123v-9.732c0-4.896 3.982-8.878 8.877-8.878s8.877 3.982 8.877 8.878z" opacity="1" data-original="#ffffff"></path></g></svg>