<svg width="308" height="50" viewBox="0 0 308 50" fill="none" xmlns="http://www.w3.org/2000/svg">
<path d="M117.124 39.288C115.204 39.288 113.368 39 111.616 38.424C109.864 37.824 108.484 37.056 107.476 36.12L108.808 33.312C109.768 34.152 110.992 34.848 112.48 35.4C113.968 35.952 115.516 36.228 117.124 36.228C118.588 36.228 119.776 36.06 120.688 35.724C121.6 35.388 122.272 34.932 122.704 34.356C123.136 33.756 123.352 33.084 123.352 32.34C123.352 31.476 123.064 30.78 122.488 30.252C121.936 29.724 121.204 29.304 120.292 28.992C119.404 28.656 118.42 28.368 117.34 28.128C116.26 27.888 115.168 27.612 114.064 27.3C112.984 26.964 111.988 26.544 111.076 26.04C110.188 25.536 109.468 24.864 108.916 24.024C108.364 23.16 108.088 22.056 108.088 20.712C108.088 19.416 108.424 18.228 109.096 17.148C109.792 16.044 110.848 15.168 112.264 14.52C113.704 13.848 115.528 13.512 117.736 13.512C119.2 13.512 120.652 13.704 122.092 14.088C123.532 14.472 124.78 15.024 125.836 15.744L124.648 18.624C123.568 17.904 122.428 17.388 121.228 17.076C120.028 16.74 118.864 16.572 117.736 16.572C116.32 16.572 115.156 16.752 114.244 17.112C113.332 17.472 112.66 17.952 112.228 18.552C111.82 19.152 111.616 19.824 111.616 20.568C111.616 21.456 111.892 22.164 112.444 22.692C113.02 23.22 113.752 23.64 114.64 23.952C115.552 24.264 116.548 24.552 117.628 24.816C118.708 25.056 119.788 25.332 120.868 25.644C121.972 25.956 122.968 26.364 123.856 26.868C124.768 27.372 125.5 28.044 126.052 28.884C126.604 29.724 126.88 30.804 126.88 32.124C126.88 33.396 126.532 34.584 125.836 35.688C125.14 36.768 124.06 37.644 122.596 38.316C121.156 38.964 119.332 39.288 117.124 39.288ZM134.443 34.392L134.515 29.964L145.495 19.92H149.671L141.247 28.2L139.375 29.784L134.443 34.392ZM131.635 39V12.288H135.091V39H131.635ZM146.215 39L138.727 29.712L140.959 26.94L150.463 39H146.215ZM153.627 46.2C152.715 46.2 151.827 46.044 150.963 45.732C150.099 45.444 149.355 45.012 148.731 44.436L150.207 41.844C150.687 42.3 151.215 42.648 151.791 42.888C152.367 43.128 152.979 43.248 153.627 43.248C154.467 43.248 155.163 43.032 155.715 42.6C156.267 42.168 156.783 41.4 157.263 40.296L158.451 37.668L158.811 37.236L166.299 19.92H169.683L160.431 40.908C159.879 42.252 159.255 43.308 158.559 44.076C157.887 44.844 157.143 45.384 156.327 45.696C155.511 46.032 154.611 46.2 153.627 46.2ZM158.163 39.612L149.451 19.92H153.051L160.467 36.912L158.163 39.612ZM184.435 39.288C182.515 39.288 180.739 38.976 179.107 38.352C177.499 37.704 176.095 36.804 174.895 35.652C173.719 34.476 172.795 33.108 172.123 31.548C171.451 29.988 171.115 28.272 171.115 26.4C171.115 24.528 171.451 22.812 172.123 21.252C172.795 19.692 173.731 18.336 174.931 17.184C176.131 16.008 177.535 15.108 179.143 14.484C180.775 13.836 182.551 13.512 184.471 13.512C186.415 13.512 188.203 13.848 189.835 14.52C191.491 15.168 192.895 16.14 194.047 17.436L191.707 19.704C190.747 18.696 189.667 17.952 188.467 17.472C187.267 16.968 185.983 16.716 184.615 16.716C183.199 16.716 181.879 16.956 180.655 17.436C179.455 17.916 178.411 18.588 177.523 19.452C176.635 20.316 175.939 21.348 175.435 22.548C174.955 23.724 174.715 25.008 174.715 26.4C174.715 27.792 174.955 29.088 175.435 30.288C175.939 31.464 176.635 32.484 177.523 33.348C178.411 34.212 179.455 34.884 180.655 35.364C181.879 35.844 183.199 36.084 184.615 36.084C185.983 36.084 187.267 35.844 188.467 35.364C189.667 34.86 190.747 34.092 191.707 33.06L194.047 35.328C192.895 36.624 191.491 37.608 189.835 38.28C188.203 38.952 186.403 39.288 184.435 39.288ZM198.678 39V12.288H202.134V39H198.678ZM216.905 39.216C214.985 39.216 213.281 38.796 211.793 37.956C210.305 37.116 209.129 35.964 208.265 34.5C207.401 33.012 206.969 31.332 206.969 29.46C206.969 27.564 207.401 25.884 208.265 24.42C209.129 22.956 210.305 21.816 211.793 21C213.281 20.16 214.985 19.74 216.905 19.74C218.801 19.74 220.493 20.16 221.981 21C223.493 21.816 224.669 22.956 225.509 24.42C226.373 25.86 226.805 27.54 226.805 29.46C226.805 31.356 226.373 33.036 225.509 34.5C224.669 35.964 223.493 37.116 221.981 37.956C220.493 38.796 218.801 39.216 216.905 39.216ZM216.905 36.192C218.129 36.192 219.221 35.916 220.181 35.364C221.165 34.812 221.933 34.032 222.485 33.024C223.037 31.992 223.313 30.804 223.313 29.46C223.313 28.092 223.037 26.916 222.485 25.932C221.933 24.924 221.165 24.144 220.181 23.592C219.221 23.04 218.129 22.764 216.905 22.764C215.681 22.764 214.589 23.04 213.629 23.592C212.669 24.144 211.901 24.924 211.325 25.932C210.749 26.916 210.461 28.092 210.461 29.46C210.461 30.804 210.749 31.992 211.325 33.024C211.901 34.032 212.669 34.812 213.629 35.364C214.589 35.916 215.681 36.192 216.905 36.192ZM239.613 39.216C237.981 39.216 236.541 38.916 235.293 38.316C234.069 37.716 233.109 36.804 232.413 35.58C231.741 34.332 231.405 32.772 231.405 30.9V19.92H234.861V30.504C234.861 32.376 235.305 33.78 236.193 34.716C237.105 35.652 238.377 36.12 240.009 36.12C241.209 36.12 242.253 35.88 243.141 35.4C244.029 34.896 244.713 34.176 245.193 33.24C245.673 32.28 245.913 31.128 245.913 29.784V19.92H249.369V39H246.093V33.852L246.633 35.22C246.009 36.492 245.073 37.476 243.825 38.172C242.577 38.868 241.173 39.216 239.613 39.216ZM263.832 39.216C261.984 39.216 260.328 38.808 258.864 37.992C257.424 37.176 256.284 36.036 255.444 34.572C254.604 33.108 254.184 31.404 254.184 29.46C254.184 27.516 254.604 25.824 255.444 24.384C256.284 22.92 257.424 21.78 258.864 20.964C260.328 20.148 261.984 19.74 263.832 19.74C265.44 19.74 266.892 20.1 268.188 20.82C269.484 21.54 270.516 22.62 271.284 24.06C272.076 25.5 272.472 27.3 272.472 29.46C272.472 31.62 272.088 33.42 271.32 34.86C270.576 36.3 269.556 37.392 268.26 38.136C266.964 38.856 265.488 39.216 263.832 39.216ZM264.12 36.192C265.32 36.192 266.4 35.916 267.36 35.364C268.344 34.812 269.112 34.032 269.664 33.024C270.24 31.992 270.528 30.804 270.528 29.46C270.528 28.092 270.24 26.916 269.664 25.932C269.112 24.924 268.344 24.144 267.36 23.592C266.4 23.04 265.32 22.764 264.12 22.764C262.896 22.764 261.804 23.04 260.844 23.592C259.884 24.144 259.116 24.924 258.54 25.932C257.964 26.916 257.676 28.092 257.676 29.46C257.676 30.804 257.964 31.992 258.54 33.024C259.116 34.032 259.884 34.812 260.844 35.364C261.804 35.916 262.896 36.192 264.12 36.192ZM270.636 39V33.852L270.852 29.424L270.492 24.996V12.288H273.948V39H270.636Z" fill="white"/>
<path d="M68.3216 49.6934C75.5814 49.6934 81.4675 43.8208 81.4675 36.5776C81.4675 30.3548 77.1234 25.1481 71.2963 23.8034C71.1769 10.6373 60.4447 0 47.2197 0C38.1402 0 30.236 5.01441 26.1336 12.4183C24.885 11.8787 23.5099 11.5788 22.0628 11.5788C16.8513 11.5788 12.5504 15.4551 11.893 20.4753C5.11222 21.8171 0 27.783 0 34.9416C0 43.0889 6.6197 49.692 14.7843 49.692C17.0585 49.6934 66.7623 49.6934 68.3216 49.6934Z" fill="#269AF2"/>
</svg>
