<svg width="512" height="359" viewBox="0 0 512 359" fill="none" xmlns="http://www.w3.org/2000/svg">
<path d="M321.6 0C274.776 0 242.064 43.979 217.6 80L132.218 59.686C156.682 23.665 197.976 0 244.8 0H321.6Z" fill="url(#paint0_radial_15_3)"/>
<path d="M54.591 113.377C54.465 111.868 54.4 110.342 54.4 108.8C54.4 78.756 78.756 54.4 108.8 54.4H185.6C155.556 54.4 131.265 111.868 131.391 113.377H54.591Z" fill="url(#paint1_radial_15_3)"/>
<path d="M81.6 272C36.534 272 0 235.466 0 190.4L115.2 156.8C115.2 201.866 113.334 272 158.4 272H81.6Z" fill="url(#paint2_radial_15_3)"/>
<path d="M0 190.4C0 154.8 22.798 124.525 54.591 113.377H131.391C99.598 124.525 115.199 154.8 115.199 190.4H0Z" fill="url(#paint3_radial_15_3)"/>
<path d="M455.622 112.773C444.6 48.728 388.791 0 321.6 0C274.776 0 233.482 23.665 209.018 59.686C201.925 56.298 193.984 54.4 185.6 54.4C155.556 54.4 131.2 78.756 131.2 108.8C131.2 110.341 131.265 111.868 131.391 113.377C99.598 124.525 76.8 154.8 76.8 190.4C76.8 235.466 113.334 272 158.4 272H430.4C475.466 272 512 235.466 512 190.4C512 154.136 488.344 123.397 455.622 112.773Z" fill="url(#paint4_radial_15_3)"/>
<path d="M191.4 179.2L156.78 192C161.059 199.636 169.224 204.8 178.6 204.8H203.6C200.023 204.8 193.124 186.839 191.4 179.2Z" fill="url(#paint5_radial_15_3)"/>
<path d="M203.6 128H178.6C164.793 128 153.6 139.193 153.6 153V179.8C153.6 184.232 154.758 188.391 156.78 192H195.651C190.722 170.154 193.37 128 203.6 128Z" fill="url(#paint6_radial_15_3)"/>
<path d="M460.8 204.8H203.6C189.793 204.8 178.6 193.607 178.6 179.8V153C178.6 139.193 189.793 128 203.6 128H460.8C474.607 128 485.8 139.193 485.8 153V179.8C485.8 193.607 474.607 204.8 460.8 204.8Z" fill="url(#paint7_radial_15_3)"/>
<path d="M217.6 179.2C224.669 179.2 230.4 173.469 230.4 166.4C230.4 159.331 224.669 153.6 217.6 153.6C210.531 153.6 204.8 159.331 204.8 166.4C204.8 173.469 210.531 179.2 217.6 179.2Z" fill="url(#paint8_radial_15_3)"/>
<path d="M256 179.2C263.069 179.2 268.8 173.469 268.8 166.4C268.8 159.331 263.069 153.6 256 153.6C248.931 153.6 243.2 159.331 243.2 166.4C243.2 173.469 248.931 179.2 256 179.2Z" fill="url(#paint9_radial_15_3)"/>
<path d="M295 179.2C302.069 179.2 307.8 173.469 307.8 166.4C307.8 159.331 302.069 153.6 295 153.6C287.931 153.6 282.2 159.331 282.2 166.4C282.2 173.469 287.931 179.2 295 179.2Z" fill="url(#paint10_radial_15_3)"/>
<path d="M191.4 256L156.78 268.8C161.059 276.436 169.224 281.6 178.6 281.6H203.6C200.023 281.6 193.124 263.639 191.4 256Z" fill="url(#paint11_radial_15_3)"/>
<path d="M203.6 204.8H178.6C164.793 204.8 153.6 215.993 153.6 229.8V256.6C153.6 261.032 154.758 265.191 156.78 268.8H195.651C190.722 246.954 193.37 204.8 203.6 204.8Z" fill="url(#paint12_radial_15_3)"/>
<path d="M460.8 281.6H203.6C189.793 281.6 178.6 270.407 178.6 256.6V229.8C178.6 215.993 189.793 204.8 203.6 204.8H460.8C474.607 204.8 485.8 215.993 485.8 229.8V256.6C485.8 270.407 474.607 281.6 460.8 281.6Z" fill="url(#paint13_radial_15_3)"/>
<path d="M217.6 256C224.669 256 230.4 250.269 230.4 243.2C230.4 236.131 224.669 230.4 217.6 230.4C210.531 230.4 204.8 236.131 204.8 243.2C204.8 250.269 210.531 256 217.6 256Z" fill="url(#paint14_radial_15_3)"/>
<path d="M256 256C263.069 256 268.8 250.269 268.8 243.2C268.8 236.131 263.069 230.4 256 230.4C248.931 230.4 243.2 236.131 243.2 243.2C243.2 250.269 248.931 256 256 256Z" fill="url(#paint15_radial_15_3)"/>
<path d="M295 256C302.069 256 307.8 250.269 307.8 243.2C307.8 236.131 302.069 230.4 295 230.4C287.931 230.4 282.2 236.131 282.2 243.2C282.2 250.269 287.931 256 295 256Z" fill="url(#paint16_radial_15_3)"/>
<path d="M191.4 332.8L156.78 345.6C161.059 353.236 169.224 358.4 178.6 358.4H203.6C200.023 358.4 193.124 340.439 191.4 332.8Z" fill="url(#paint17_radial_15_3)"/>
<path d="M203.6 281.6H178.6C164.793 281.6 153.6 292.793 153.6 306.6V333.4C153.6 337.832 154.758 341.991 156.78 345.6H195.651C190.722 323.754 193.37 281.6 203.6 281.6Z" fill="url(#paint18_radial_15_3)"/>
<path d="M460.8 358.4H203.6C189.793 358.4 178.6 347.207 178.6 333.4V306.6C178.6 292.793 189.793 281.6 203.6 281.6H460.8C474.607 281.6 485.8 292.793 485.8 306.6V333.4C485.8 347.207 474.607 358.4 460.8 358.4Z" fill="url(#paint19_radial_15_3)"/>
<path d="M217.6 332.8C224.669 332.8 230.4 327.069 230.4 320C230.4 312.931 224.669 307.2 217.6 307.2C210.531 307.2 204.8 312.931 204.8 320C204.8 327.069 210.531 332.8 217.6 332.8Z" fill="url(#paint20_radial_15_3)"/>
<path d="M256 332.8C263.069 332.8 268.8 327.069 268.8 320C268.8 312.931 263.069 307.2 256 307.2C248.931 307.2 243.2 312.931 243.2 320C243.2 327.069 248.931 332.8 256 332.8Z" fill="url(#paint21_radial_15_3)"/>
<path d="M295 332.8C302.069 332.8 307.8 327.069 307.8 320C307.8 312.931 302.069 307.2 295 307.2C287.931 307.2 282.2 312.931 282.2 320C282.2 327.069 287.931 332.8 295 332.8Z" fill="url(#paint22_radial_15_3)"/>
<path d="M384 179.2H371.2V153.6H384V179.2ZM409.6 153.6H396.8V179.2H409.6V153.6ZM435.2 153.6H422.4V179.2H435.2V153.6ZM460.8 153.6H448V179.2H460.8V153.6Z" fill="url(#paint23_radial_15_3)"/>
<path d="M384 256H371.2V230.4H384V256ZM409.6 230.4H396.8V256H409.6V230.4ZM435.2 230.4H422.4V256H435.2V230.4ZM460.8 230.4H448V256H460.8V230.4Z" fill="url(#paint24_radial_15_3)"/>
<path d="M384 332.8H371.2V307.2H384V332.8ZM409.6 307.2H396.8V332.8H409.6V307.2ZM435.2 307.2H422.4V332.8H435.2V307.2ZM460.8 307.2H448V332.8H460.8V307.2Z" fill="url(#paint25_radial_15_3)"/>
<defs>
<radialGradient id="paint0_radial_15_3" cx="0" cy="0" r="1" gradientUnits="userSpaceOnUse" gradientTransform="translate(214.418 -6.58) scale(97.427 97.427)">
<stop stop-color="#EAF9FA"/>
<stop offset="0.4303" stop-color="#D6F6FD"/>
<stop offset="1" stop-color="#68E7FD"/>
</radialGradient>
<radialGradient id="paint1_radial_15_3" cx="0" cy="0" r="1" gradientUnits="userSpaceOnUse" gradientTransform="translate(97.269 51.9664) scale(87.953 67.1081)">
<stop stop-color="#EAF9FA"/>
<stop offset="0.4303" stop-color="#D6F6FD"/>
<stop offset="1" stop-color="#68E7FD"/>
</radialGradient>
<radialGradient id="paint2_radial_15_3" cx="0" cy="0" r="1" gradientUnits="userSpaceOnUse" gradientTransform="translate(57.349 178.794) scale(161.174 92.3527)">
<stop stop-color="#68E7FD"/>
<stop offset="0.1693" stop-color="#42E3FD"/>
<stop offset="0.4303" stop-color="#00DCFC"/>
<stop offset="0.9716" stop-color="#00C1FC"/>
</radialGradient>
<radialGradient id="paint3_radial_15_3" cx="0" cy="0" r="1" gradientUnits="userSpaceOnUse" gradientTransform="translate(49.388 108.905) scale(80.486 80.486)">
<stop stop-color="#EAF9FA"/>
<stop offset="0.4303" stop-color="#D6F6FD"/>
<stop offset="1" stop-color="#68E7FD"/>
</radialGradient>
<radialGradient id="paint4_radial_15_3" cx="0" cy="0" r="1" gradientUnits="userSpaceOnUse" gradientTransform="translate(518.101 176.618) rotate(180) scale(437.907 335.875)">
<stop stop-color="#00D1FD"/>
<stop offset="0.5038" stop-color="#00C1FC"/>
<stop offset="0.9755" stop-color="#0094FF"/>
</radialGradient>
<radialGradient id="paint5_radial_15_3" cx="0" cy="0" r="1" gradientUnits="userSpaceOnUse" gradientTransform="translate(171.529 189.18) scale(38.617 21.278)">
<stop stop-color="#8ABBD5"/>
<stop offset="0.4303" stop-color="#6CABCA"/>
<stop offset="1" stop-color="#0681AF"/>
</radialGradient>
<radialGradient id="paint6_radial_15_3" cx="0" cy="0" r="1" gradientUnits="userSpaceOnUse" gradientTransform="translate(174.024 132.081) scale(73.468)">
<stop stop-color="#E6F6FF"/>
<stop offset="0.3758" stop-color="#C0DAE9"/>
<stop offset="0.4303" stop-color="#BAD6E5"/>
<stop offset="1" stop-color="#8ABBD5"/>
</radialGradient>
<radialGradient id="paint7_radial_15_3" cx="0" cy="0" r="1" gradientUnits="userSpaceOnUse" gradientTransform="translate(420.677 142.805) rotate(180) scale(251.614 80.5165)">
<stop stop-color="#3692BC"/>
<stop offset="0.5038" stop-color="#0681AF"/>
<stop offset="0.9755" stop-color="#0055A3"/>
</radialGradient>
<radialGradient id="paint8_radial_15_3" cx="0" cy="0" r="1" gradientUnits="userSpaceOnUse" gradientTransform="translate(248.319 165.111) scale(45.723)">
<stop stop-color="#FF6470"/>
<stop offset="0.5038" stop-color="#FF4555"/>
<stop offset="0.9424" stop-color="#EB2A42"/>
</radialGradient>
<radialGradient id="paint9_radial_15_3" cx="0" cy="0" r="1" gradientUnits="userSpaceOnUse" gradientTransform="translate(286.719 165.111) scale(45.723)">
<stop stop-color="#FFF044"/>
<stop offset="0.5119" stop-color="#FFEA00"/>
<stop offset="0.6858" stop-color="#FBD113"/>
<stop offset="0.9755" stop-color="#F6AB31"/>
</radialGradient>
<radialGradient id="paint10_radial_15_3" cx="0" cy="0" r="1" gradientUnits="userSpaceOnUse" gradientTransform="translate(325.719 165.111) scale(45.723 45.723)">
<stop stop-color="#7BE700"/>
<stop offset="0.5119" stop-color="#72D800"/>
<stop offset="0.8085" stop-color="#26B847"/>
<stop offset="0.9755" stop-color="#00A96A"/>
</radialGradient>
<radialGradient id="paint11_radial_15_3" cx="0" cy="0" r="1" gradientUnits="userSpaceOnUse" gradientTransform="translate(171.529 266.001) scale(38.617 21.278)">
<stop stop-color="#8ABBD5"/>
<stop offset="0.4303" stop-color="#6CABCA"/>
<stop offset="1" stop-color="#0681AF"/>
</radialGradient>
<radialGradient id="paint12_radial_15_3" cx="0" cy="0" r="1" gradientUnits="userSpaceOnUse" gradientTransform="translate(174.024 208.881) scale(73.468)">
<stop stop-color="#E6F6FF"/>
<stop offset="0.3758" stop-color="#C0DAE9"/>
<stop offset="0.4303" stop-color="#BAD6E5"/>
<stop offset="1" stop-color="#8ABBD5"/>
</radialGradient>
<radialGradient id="paint13_radial_15_3" cx="0" cy="0" r="1" gradientUnits="userSpaceOnUse" gradientTransform="translate(420.677 219.617) rotate(180) scale(251.614 80.5165)">
<stop stop-color="#3692BC"/>
<stop offset="0.5038" stop-color="#0681AF"/>
<stop offset="0.9755" stop-color="#0055A3"/>
</radialGradient>
<radialGradient id="paint14_radial_15_3" cx="0" cy="0" r="1" gradientUnits="userSpaceOnUse" gradientTransform="translate(248.319 241.911) scale(45.723 45.723)">
<stop stop-color="#FF6470"/>
<stop offset="0.5038" stop-color="#FF4555"/>
<stop offset="0.9424" stop-color="#EB2A42"/>
</radialGradient>
<radialGradient id="paint15_radial_15_3" cx="0" cy="0" r="1" gradientUnits="userSpaceOnUse" gradientTransform="translate(286.719 241.911) scale(45.723 45.723)">
<stop stop-color="#FFF044"/>
<stop offset="0.5119" stop-color="#FFEA00"/>
<stop offset="0.6858" stop-color="#FBD113"/>
<stop offset="0.9755" stop-color="#F6AB31"/>
</radialGradient>
<radialGradient id="paint16_radial_15_3" cx="0" cy="0" r="1" gradientUnits="userSpaceOnUse" gradientTransform="translate(325.719 241.911) scale(45.723 45.723)">
<stop stop-color="#7BE700"/>
<stop offset="0.5119" stop-color="#72D800"/>
<stop offset="0.8085" stop-color="#26B847"/>
<stop offset="0.9755" stop-color="#00A96A"/>
</radialGradient>
<radialGradient id="paint17_radial_15_3" cx="0" cy="0" r="1" gradientUnits="userSpaceOnUse" gradientTransform="translate(171.529 342.822) scale(38.617 21.278)">
<stop stop-color="#8ABBD5"/>
<stop offset="0.4303" stop-color="#6CABCA"/>
<stop offset="1" stop-color="#0681AF"/>
</radialGradient>
<radialGradient id="paint18_radial_15_3" cx="0" cy="0" r="1" gradientUnits="userSpaceOnUse" gradientTransform="translate(174.024 285.681) scale(73.468)">
<stop stop-color="#E6F6FF"/>
<stop offset="0.3758" stop-color="#C0DAE9"/>
<stop offset="0.4303" stop-color="#BAD6E5"/>
<stop offset="1" stop-color="#8ABBD5"/>
</radialGradient>
<radialGradient id="paint19_radial_15_3" cx="0" cy="0" r="1" gradientUnits="userSpaceOnUse" gradientTransform="translate(420.677 296.428) rotate(180) scale(251.614 80.5165)">
<stop stop-color="#3692BC"/>
<stop offset="0.5038" stop-color="#0681AF"/>
<stop offset="0.9755" stop-color="#0055A3"/>
</radialGradient>
<radialGradient id="paint20_radial_15_3" cx="0" cy="0" r="1" gradientUnits="userSpaceOnUse" gradientTransform="translate(248.319 318.711) scale(45.723 45.723)">
<stop stop-color="#FF6470"/>
<stop offset="0.5038" stop-color="#FF4555"/>
<stop offset="0.9424" stop-color="#EB2A42"/>
</radialGradient>
<radialGradient id="paint21_radial_15_3" cx="0" cy="0" r="1" gradientUnits="userSpaceOnUse" gradientTransform="translate(286.719 318.711) scale(45.723 45.723)">
<stop stop-color="#FFF044"/>
<stop offset="0.5119" stop-color="#FFEA00"/>
<stop offset="0.6858" stop-color="#FBD113"/>
<stop offset="0.9755" stop-color="#F6AB31"/>
</radialGradient>
<radialGradient id="paint22_radial_15_3" cx="0" cy="0" r="1" gradientUnits="userSpaceOnUse" gradientTransform="translate(325.719 318.711) scale(45.723)">
<stop stop-color="#7BE700"/>
<stop offset="0.5119" stop-color="#72D800"/>
<stop offset="0.8085" stop-color="#26B847"/>
<stop offset="0.9755" stop-color="#00A96A"/>
</radialGradient>
<radialGradient id="paint23_radial_15_3" cx="0" cy="0" r="1" gradientUnits="userSpaceOnUse" gradientTransform="translate(421.894 181.54) scale(75.995 37.0096)">
<stop stop-color="#0055A3"/>
<stop offset="0.4384" stop-color="#004281"/>
<stop offset="0.9826" stop-color="#00366D"/>
</radialGradient>
<radialGradient id="paint24_radial_15_3" cx="0" cy="0" r="1" gradientUnits="userSpaceOnUse" gradientTransform="translate(421.894 258.362) scale(75.995 37.0096)">
<stop stop-color="#0055A3"/>
<stop offset="0.4384" stop-color="#004281"/>
<stop offset="0.9826" stop-color="#00366D"/>
</radialGradient>
<radialGradient id="paint25_radial_15_3" cx="0" cy="0" r="1" gradientUnits="userSpaceOnUse" gradientTransform="translate(421.894 335.184) scale(75.995 37.0095)">
<stop stop-color="#0055A3"/>
<stop offset="0.4384" stop-color="#004281"/>
<stop offset="0.9826" stop-color="#00366D"/>
</radialGradient>
</defs>
</svg>
