<svg xmlns="http://www.w3.org/2000/svg" version="1.1" xmlns:xlink="http://www.w3.org/1999/xlink" width="512" height="512" x="0" y="0" viewBox="0 0 32 32" style="enable-background:new 0 0 512 512" xml:space="preserve" class=""><defs><linearGradient id="a"><stop offset=".271" stop-color="#15a4fc"></stop><stop offset=".386" stop-color="#22b0fb"></stop><stop offset=".7" stop-color="#40ccfa"></stop><stop offset=".877" stop-color="#4bd6f9"></stop></linearGradient><linearGradient id="a"><stop offset=".271" stop-color="#15a4fc"></stop><stop offset=".386" stop-color="#22b0fb"></stop><stop offset=".7" stop-color="#40ccfa"></stop><stop offset=".877" stop-color="#4bd6f9"></stop></linearGradient></defs><g><linearGradient id="a"><stop offset=".271" stop-color="#15a4fc"></stop><stop offset=".386" stop-color="#22b0fb"></stop><stop offset=".7" stop-color="#40ccfa"></stop><stop offset=".877" stop-color="#4bd6f9"></stop></linearGradient><linearGradient xlink:href="#a" id="b" x1="17.36" x2="18.509" y1="33.225" y2=".608" gradientUnits="userSpaceOnUse"></linearGradient><linearGradient xlink:href="#a" id="c" x1="10.345" x2=".196" y1="4.175" y2="7.047" gradientUnits="userSpaceOnUse"></linearGradient><path fill="url(&quot;#a&quot;)" d="M30 6v23.5c0 .4-.6.6-1 .3l-1.5-1.4c-.3-.2-.8-.2-1.1 0l-1.5 1.2c-.5.4-1.3.4-1.8 0l-1.5-1.2c-.3-.3-.8-.3-1.1 0L19 29.6c-.5.4-1.3.4-1.9 0l-1.5-1.2c-.3-.3-.8-.3-1.1 0L13 29.6c-.5.4-1.3.4-1.9 0l-1.5-1.2c-.3-.2-.8-.2-1.1 0L7 29.8c-.4.4-1 .1-1-.3V2h19.7C28 2 30 3.8 30 6z" opacity="1" data-original="url(#a)"></path><path fill="url(&quot;#a&quot;)" d="M6 2v6.9H3c-.5 0-1-.5-1-1V6c0-2.1 1.8-3.9 4-4z" opacity="1" data-original="url(#a)"></path><g fill="#FFFFFF"><path d="M25.7 7.8H10.2c-.5 0-.9-.4-.9-.9.1-.5.5-.9.9-.9h15.5c.5 0 .9.4.9.9s-.4.9-.9.9zM25.7 13.1H10.2c-.5 0-.9-.4-.9-.9s.4-.9.9-.9h15.5c.5 0 .9.4.9.9s-.4.9-.9.9zM25.7 18.4H10.2c-.5 0-.9-.4-.9-.9s.4-.9.9-.9h15.5c.5 0 .9.4.9.9s-.4.9-.9.9zM25.7 23.7H10.2c-.5 0-.9-.4-.9-.9s.4-.9.9-.9h15.5c.5 0 .9.4.9.9s-.4.9-.9.9z" fill="#FFFFFF" opacity="1" data-original="#ffffff"></path></g></g></svg>